<svg width="300" height="300" viewBox="0 0 300 300" fill="none" xmlns="http://www.w3.org/2000/svg">
<circle cx="150" cy="150" r="150" fill="#FEC7DA"/>
<path d="M238 268C197.5 270.5 165 254 147 262.5C129 271 115 261.5 117.5 251C120 240.5 138 224 151 223C164 222 193 222.5 199.5 218C206 213.5 204 206.5 206.5 201.5C209 196.5 218.5 189.5 226.5 188.5C234.5 187.5 242 180.5 250.5 177C259 173.5 260.5 170.5 271 172.5C281.5 174.5 278.5 188.5 289.5 188.5C298.3 188.5 284.167 211.5 276 223L260 247.5L238 268Z" fill="#FFB1C8"/>
<path d="M224 25C194.5 27 171 30.5 164 37.5C157 44.5 150.5 59.5 149.5 68.5C148.5 77.5 150.5 102.5 172 102.5C193.5 102.5 215 98.5 226.5 90C241 79 241.5 106 253 109C264.5 112 272.5 106 273 98C273.5 90 273 67 265 60C257 53 250.5 41.5 242.5 35.5C236.1 30.7 227.5 26.5 224 25Z" fill="#FFB1C8"/>
<path d="M27 75.5C56.5 65 66.5 68.5 74 73C81.5 77.5 105 89.5 120 92.5C135 95.5 131.5 109 141.5 112C151.5 115 154 133.5 153 142C152 150.5 133.5 175 113 167C92.5 159 88.5 139.5 69 137.5C49.5 135.5 37 142 27 142C16.9999 142 17.5 134.5 7.99996 131C-1.50005 127.5 11 97.5 17.5 86.5C22.7 77.7 26 75.5 27 75.5Z" fill="#FFB1C8"/>
<path d="M97 215.5C109 212.5 115 211.5 109.5 197C106.847 190.007 76.5 184 61 189.327C45.5 194.655 26.9384 190.441 19 190C10 189.5 5.50001 195 10 201C13.6 205.8 26.1667 211 32 213C42.1667 215.667 85 218.5 97 215.5Z" fill="white" fill-opacity="0.46"/>
<path d="M126 248C106.5 261.5 114 275.5 145.5 295H161C170.5 295 172.5 291.5 175 285.5C177.5 279.5 168 272 187.5 269C207 266 185 245 163.5 251C142 257 145.5 234.5 126 248Z" fill="white" fill-opacity="0.46"/>
<path d="M196.5 207C203 217 214.5 231.5 259.5 248C260.833 246 263.9 241.7 265.5 240.5C267.5 239 275 222.5 268 219C261 215.5 254 221.5 249 213C244 204.5 239 185.5 226 171.5C213 157.5 190 197 196.5 207Z" fill="white" fill-opacity="0.46"/>
<path d="M232 143C249 155 255.5 145.5 295.5 131L292.5 121C285.5 100 281 109 270.5 102C260 95 254 119 236.5 121C219 123 223.5 102.5 204.5 109C185.5 115.5 215 131 232 143Z" fill="white" fill-opacity="0.46"/>
<path d="M116.5 164.5C144.5 166.5 145.5 164 172.5 154.5C184 150.351 187.5 154.5 196.5 150.5C205.5 146.5 187.5 133.5 175 131C162.5 128.5 161 143 148 145.5C135 148 121.5 143 106.5 139.5C91.5 136 78.5 143 61 143C43.5 143 51.5 148 61 157.5C70.5 167 88.5 162.5 116.5 164.5Z" fill="white" fill-opacity="0.46"/>
<path d="M45 83.5C49 93.5 57.5 92.5 78 90C91.5 92 81.5 90 97 94C112.5 98 116.5 98 128.5 90C140.5 82 102.5 76.5 89.5 69C76.5 61.5 65.5 64 58 69C50.5 74 41 73.5 45 83.5Z" fill="white" fill-opacity="0.46"/>
<path d="M166.5 37.5C185 37.5 196.5 30 232 26.5L245 37.5C242.167 39.3333 234.9 43 228.5 43C220.5 43 209 47 202 56.5C195 66 182 62 166.5 56.5C151 51 145.5 56.5 128.5 56.5C111.5 56.5 122.5 45.5 132 37.5C141.5 29.5 148 37.5 166.5 37.5Z" fill="white" fill-opacity="0.46"/>
<path d="M91.5 32C86 26.5 78 33 64 33L52.5 43H67C76 43 81.5 48 94.5 48C107.5 48 97 37.5 91.5 32Z" fill="white" fill-opacity="0.46"/>
<circle cx="150" cy="150" r="147" stroke="white" stroke-width="6"/>
</svg>
