<svg width="300" height="300" viewBox="0 0 300 300" fill="none" xmlns="http://www.w3.org/2000/svg">
<circle cx="150" cy="150" r="150" fill="#E4C7FE"/>
<path fill-rule="evenodd" clip-rule="evenodd" d="M298.367 172.209C299.443 164.962 300 157.546 300 150C300 138.823 298.777 127.931 296.459 117.451C294.481 117.613 292.355 117.842 290.198 118.074C285.959 118.53 281.598 119 278 119C267.5 119 259.5 120 247 124.5C239.265 127.285 230.764 126.24 222.919 125.276C218.086 124.682 213.502 124.119 209.5 124.5C207.287 124.711 204.919 125.077 202.363 125.472C192.789 126.952 180.575 128.841 164 124.5C159.531 123.33 155.67 122.216 152.091 121.183C142.215 118.333 134.478 116.101 122 115C111.72 114.093 101.806 117.757 93.5843 120.795C88.2094 122.781 83.5578 124.5 80 124.5C73.1601 124.5 63.9522 123.518 56.239 122.696C53.803 122.436 51.5161 122.192 49.5 122C45.1045 121.581 39.6575 122.039 34.2594 122.492C26.7627 123.122 19.3603 123.744 15 122C11.872 120.749 7.52095 119.262 3.43462 117.936C1.18509 128.267 0 138.995 0 150C0 151.88 0.0345951 153.752 0.103183 155.616C7.9582 156.051 14.8377 157.52 21.5091 158.943C35.4238 161.913 48.4332 164.689 67.5 157.5C69.5312 156.734 71.4228 156.017 73.1938 155.346C98.0154 145.936 99.1645 145.5 129.5 145.5C146.428 145.5 152.504 146.992 158.327 148.422C163.683 149.737 168.824 151 182 151C192.012 151 197.584 149.873 202.045 148.971C209.837 147.395 214.24 146.505 233 153.5C245.94 158.325 251.28 161.322 254.716 163.251C259.115 165.72 260.395 166.439 270.5 167C282.764 167.681 292.475 169.523 298.367 172.209ZM293.748 192.991C293.703 193.001 293.657 193.011 293.611 193.021C289.931 193.843 284.328 195.094 259.5 192.5C249.708 191.477 242.649 190.582 236.602 189.815H236.602L236.602 189.815L236.601 189.815C221.961 187.959 213.245 186.854 186 186.5C171.399 186.31 160.034 184.682 150.623 183.334C135.22 181.128 125.053 179.672 114.5 186.5C97.5 197.5 90.5 200.5 67.5 199C46.9061 197.657 40.3422 194.31 29.1444 188.599C27.8361 187.932 26.4646 187.232 25 186.5C19.8341 183.917 15.4851 181.13 11.6014 178.641C8.00751 176.338 4.81201 174.29 1.73623 172.895C4.66403 192.012 11.2007 209.94 20.629 225.963C26.7808 226.169 30.0056 226.85 32.8392 227.449C38.299 228.602 42.3063 229.449 63 226C79.9022 223.183 89.8607 220.586 97.5845 218.572L97.5846 218.572C106.312 216.297 112.186 214.765 122 214.5C126.044 214.391 129.874 214.09 133.676 213.792C147.266 212.725 160.512 211.686 182 219.5C192.152 223.192 198.284 226.066 202.886 228.223C210.749 231.908 214.145 233.5 225.5 233.5H264C266.138 233.5 269.519 234.582 272.828 236.122C281.967 223.112 289.092 208.584 293.748 192.991ZM259.942 252.044C257.021 252.332 253.596 252.5 249.5 252.5C242.53 252.5 238.049 253.29 233.773 254.043C225.779 255.452 218.499 256.735 197 252.5C181.641 249.475 176.572 244.608 172.315 240.522C167.425 235.828 163.607 232.164 146.5 233.5C135.933 234.326 128.473 234.279 122.591 234.242H122.591H122.591H122.591H122.591C110.661 234.167 105.221 234.133 93.5 241.5C88.4045 244.703 85.2166 247.228 82.776 249.16C76.8346 253.866 75.3222 255.063 61.5 254C55.6941 253.553 52.5033 253.506 50.3968 253.474C48.9527 253.453 48.0181 253.439 47.0999 253.309C45.4161 253.071 43.7873 252.444 39.1716 250.668L39.1697 250.667L39.1642 250.665C38.9795 250.594 38.7901 250.521 38.5957 250.446C50.9035 264.088 65.6814 275.458 82.2244 283.851C85.3824 282.962 87.2713 282.211 88.9322 281.551C93.6863 279.661 96.5713 278.514 122 277C136.701 276.125 146.563 275.25 154.008 274.589C167.833 273.362 173.326 272.875 186 274.5C197.118 275.925 202.547 279.626 206.828 282.544C209.07 284.073 210.998 285.387 213.263 286.046C230.974 277.796 246.806 266.19 259.942 252.044ZM204.003 289.985C196.817 291.388 188.235 292.925 182 294C175.5 294.5 159.7 295.9 148.5 297.5C144.047 298.136 134.179 298.003 122.564 297.497C131.459 299.141 140.629 300 150 300C169.038 300 187.247 296.453 204.003 289.985ZM11.3439 92.674C19.5715 92.2729 29.8281 92.787 37.8994 93.1916C40.3378 93.3138 42.5767 93.426 44.5 93.5C52.532 93.8089 59.037 96.4082 65.0765 98.8215L65.0766 98.8215C68.8121 100.314 72.3695 101.736 76 102.5C84.6644 104.324 93.3287 101.989 106.166 98.5296L106.166 98.5295C107.404 98.1958 108.681 97.8518 110 97.5C125 93.5 128.5 93.5 140.5 93.5C144.877 93.5 148.19 93.2339 151.19 92.9929C156.416 92.5732 160.695 92.2295 168 93.5C172.641 94.3071 179.642 94.4628 186.902 94.6242C197.634 94.8629 208.93 95.1141 214 97.5C219.419 100.05 230.733 100.771 239.776 101.348C244.918 101.675 249.325 101.956 251.5 102.5C257.5 104 270.4 102.1 278 100.5C283.429 99.3571 286.082 100.173 289.038 101.083C290.002 101.38 290.999 101.686 292.135 101.938C288.357 90.7633 283.299 80.1784 277.134 70.3584C271.395 70.7421 262.123 71.4257 249.5 72.5C240.743 73.2452 235.597 74.2682 231.396 75.1032C224.323 76.509 219.93 77.3821 205.5 75.5C198.304 74.5614 191.891 73.4269 186.016 72.3877C173.114 70.1054 162.807 68.2822 152.5 70C137.5 72.5 121.5 77 107.5 81.5C93.5 86 65.5 81.5 57.5 78.5C55.738 77.8393 53.8548 76.8875 51.8396 75.869C44.705 72.2632 35.9165 67.8215 25 72.5C23.4853 73.1492 22.1242 73.4886 20.9029 73.5737C17.283 79.6752 14.0834 86.0552 11.3439 92.674ZM33.9669 54.9335C60.9307 55.8294 73.0957 54.0943 83.2534 52.6455C90.1066 51.6681 96.046 50.8209 105 51C118.662 51.2733 127.994 50.0533 138.136 48.7273C146.553 47.6269 155.528 46.4535 168 46C178.003 45.6363 184.036 44.4787 188.94 43.538C197.518 41.8923 202.639 40.9098 219.5 46C238.131 51.6243 254.043 51.8117 263.066 51.4271C250.244 36.7314 234.603 24.5586 216.986 15.7513C214.764 16.4746 212.257 17.0916 209.5 17.5C196 19.5 182.5 20.5 168 17.5C160.577 15.9643 154.596 18.3592 148.513 20.7947C142.714 23.117 136.822 25.4762 129.5 24.5C122.682 23.5909 112.248 24.2314 101.814 24.8719C89.2934 25.6405 76.7727 26.4091 70.5 24.5C69.8735 24.3093 69.2886 24.1068 68.7426 23.8943C55.5945 32.3839 43.8591 42.8738 33.9669 54.9335ZM108.024 5.95234L140.5 3C153.467 3.64299 175.144 4.69941 189.925 5.37177C177.213 1.87033 163.825 0 150 0C135.43 0 121.344 2.07746 108.024 5.95234Z" fill="#DEAEFA"/>
<path fill-rule="evenodd" clip-rule="evenodd" d="M294.75 189.481C298.173 176.901 300 163.664 300 150C300 139.3 298.88 128.862 296.75 118.797C286.354 121.073 277.826 123.505 270.177 125.686L270.176 125.687L270.176 125.687C254.756 130.085 242.904 133.465 226.5 132.5C210.546 131.562 201.638 122.208 194.511 114.723C190.246 110.245 186.618 106.436 182.5 105.5C171.5 103 174.5 86.5 191.5 79C208.5 71.5 228.5 64.5 240 69.5C244.491 71.4525 245.398 74.0912 246.265 76.6122C247.618 80.5471 248.872 84.1953 263.5 84.5C273.161 84.7013 279.257 83.3632 283.68 81.8881C258.865 33.2818 208.319 0 150 0C105.489 0 65.5065 19.3872 38.0356 50.178C45.7623 51.5206 53.8562 52.2645 61.3171 52.9502C79.6693 54.637 94.1917 55.9717 90 65C87.8569 69.6159 87.8336 73.3077 87.8154 76.1831C87.7785 82.0289 87.7629 84.5 70 84.5C37.5 82 31 81 19.5 76.5C19.4202 76.4688 19.3421 76.4366 19.2656 76.4035C8.95601 94.6777 2.36723 115.33 0.527374 137.332C0.858553 136.863 1.18405 136.418 1.50001 136C4.96359 135.294 8.03222 134.647 10.8231 134.057L10.8242 134.057C29.7883 130.053 35.9263 128.757 66 130.5C85.4217 131.626 91.8501 140.833 97.5058 148.934C101.897 155.222 105.822 160.844 115 161.5C136 163 168 175.5 148 181C140.613 183.031 137.523 184.995 134.977 186.612C130.629 189.375 127.866 191.131 108 190.5C89.8348 189.923 81.1473 184.358 72.1571 178.599C65.5575 174.372 58.7948 170.04 48 167.5C34.759 164.384 25.158 165.313 17.1668 166.086C11.0813 166.675 5.9294 167.174 0.814585 165.727C2.99656 186.669 9.48762 206.331 19.3855 223.809C22.7383 222.55 25.4264 221.137 28.035 219.765C35.2185 215.986 41.7996 212.525 60 213.5C65.2426 213.781 69.9419 214.009 74.1667 214.214H74.1669C92.5057 215.105 101.904 215.562 108 218C109.923 218.769 112.504 219.144 115.33 219.554L115.33 219.554C123.522 220.744 133.769 222.232 136 234.5L136.017 234.592C139.002 251.009 139.454 253.499 115 253C103.563 252.767 96.4838 248.828 90.152 245.305C82.9205 241.282 76.6633 237.801 66 241C63.2371 241.829 60.6842 242.62 58.3056 243.356L58.305 243.356L58.3032 243.357C49.3248 246.138 42.8303 248.149 36.9054 248.541C64.4037 280.074 104.875 300 150 300C183.899 300 215.171 288.755 240.29 269.792C238.657 270.258 237.5 270.5 237.5 270.5H201.5C190.204 270.5 188.621 268.734 185.457 265.201C183.859 263.418 181.858 261.184 178 258.5C166.5 250.5 192.5 241 205.5 244.5C208.245 245.239 211.19 245.956 214.236 246.697C225.622 249.467 238.428 252.583 247.5 258.5C249.052 259.512 250.002 260.469 250.486 261.368C265.092 248.182 277.09 232.163 285.616 214.177C280.969 217.22 274.224 221 263.5 221C255.094 221 253.29 217.333 251.316 213.322C249.299 209.222 247.105 204.764 237.5 203.5C225.827 201.964 222.647 204.958 218.103 209.234C215.252 211.918 211.863 215.108 205.5 218C189 225.5 176.5 218 171.5 210.5C167.394 204.341 176.776 198.519 188.293 191.372C190.8 189.817 193.408 188.198 196 186.5C205.393 180.346 211.848 180.277 221.21 180.176C226.301 180.121 232.251 180.057 240 179C262 176 283.5 180.5 292 186.5C293.15 187.312 294.054 188.328 294.75 189.481ZM133 32C137.076 21.6545 145.475 20.351 161.527 17.86C171.077 16.3781 183.334 14.476 199 10C206.167 13.1667 221.3 19.9 224.5 21.5C226.948 22.7239 220.97 23.9477 212.754 25.6299C207.543 26.6967 201.433 27.9477 196 29.5C190.2 31.1573 183.713 34.7027 176.503 38.6429C166.312 44.2129 154.678 50.5716 141.5 53.5C122.093 57.8127 125.005 50.9658 130.343 38.4139L130.343 38.4138L130.344 38.4133L130.344 38.4118C131.195 36.412 132.107 34.2674 133 32ZM125.606 106.688C138.624 109.385 154.5 112.675 154.5 120.5C154.5 129.5 135 134 121.5 127.5C118.049 125.838 114.859 124.504 112.031 123.32C103.797 119.874 98.6278 117.711 99 112.5C99.5 105.5 107 102.5 120 105.5C121.762 105.892 123.652 106.283 125.606 106.688ZM212.764 147.877C220.3 146.959 228.967 145.904 243.5 145.5C259.415 147.489 262.349 149.479 265.655 151.72C266.503 152.295 267.377 152.887 268.5 153.5C274 156.5 281.5 166.5 279.5 169C277.5 171.5 259.5 172 254 167.5C248.5 163 226 157.5 214.5 159.5C212.286 159.885 209.813 160.437 207.215 161.016L207.215 161.016L207.215 161.016C196.321 163.447 183.249 166.363 178 159.5C171.63 151.169 177.266 149.563 184.083 147.619L184.5 147.5C188.205 146.441 191.91 147.064 195.912 147.736C199.47 148.334 203.264 148.971 207.5 148.5C209.233 148.307 210.967 148.096 212.764 147.877Z" fill="#CA7BFF" fill-opacity="0.29"/>
<circle cx="150" cy="150" r="147" stroke="white" stroke-width="6"/>
</svg>
